<svg width="20" height="34" viewBox="0 0 20 34" fill="none" xmlns="http://www.w3.org/2000/svg">
<path d="M3.24585 19.3605C4.51339 19.3605 5.54093 18.333 5.54093 17.0654C5.54093 15.7979 4.51339 14.7703 3.24585 14.7703L3.24585 19.3605ZM0.967244 15.4426C0.0709584 16.3388 0.0709584 17.792 0.967244 18.6883L15.5731 33.2941C16.4693 34.1904 17.9225 34.1904 18.8188 33.2941C19.7151 32.3978 19.7151 30.9447 18.8188 30.0484L5.83585 17.0654L18.8188 4.08249C19.7151 3.1862 19.7151 1.73303 18.8188 0.836748C17.9225 -0.059536 16.4693 -0.059536 15.5731 0.836748L0.967244 15.4426ZM3.24585 14.7703H2.59011L2.59011 19.3605H3.24585L3.24585 14.7703Z" fill="white"/>
</svg>
