<svg width="20" height="34" viewBox="0 0 20 34" fill="none" xmlns="http://www.w3.org/2000/svg">
<path d="M16.5903 14.7703C15.3228 14.7703 14.2952 15.7979 14.2952 17.0654C14.2952 18.333 15.3228 19.3605 16.5903 19.3605L16.5903 14.7703ZM18.8689 18.6883C19.7652 17.792 19.7652 16.3388 18.8689 15.4426L4.26312 0.836749C3.36684 -0.0595354 1.91367 -0.0595353 1.01739 0.836749C0.121103 1.73303 0.121103 3.1862 1.01739 4.08249L14.0003 17.0654L1.01739 30.0484C0.121104 30.9447 0.121104 32.3978 1.01739 33.2941C1.91368 34.1904 3.36684 34.1904 4.26313 33.2941L18.8689 18.6883ZM16.5903 19.3605L17.2461 19.3605L17.2461 14.7703L16.5903 14.7703L16.5903 19.3605Z" fill="#98E0FF"/>
</svg>
