<svg width="68" height="60" viewBox="0 0 68 60" fill="none" xmlns="http://www.w3.org/2000/svg">
<path fill-rule="evenodd" clip-rule="evenodd" d="M15.0509 36.1482C15.195 36.1967 15.3404 36.2312 15.4857 36.2523C15.6442 36.6247 15.8489 37.1064 16.0877 37.6696C16.6706 39.0443 17.456 40.9035 18.2666 42.8432C19.9198 46.7988 21.5875 50.8762 21.9557 52.0433C22.4117 53.4861 22.8936 54.4671 23.4197 55.1367C23.6918 55.483 24.0064 55.7854 24.3745 56.0144C24.5599 56.1296 24.7556 56.2242 24.96 56.2946C24.969 56.2977 24.978 56.3007 24.987 56.3037C26.0403 56.7014 27.0007 56.5357 27.602 56.3332C27.9237 56.2248 28.1841 56.0939 28.3685 55.9879C28.4626 55.9338 28.5421 55.8833 28.6055 55.8407L28.6204 55.8306L37.9234 50.0291L48.6691 58.2675C48.8277 58.3891 49.0006 58.491 49.1838 58.571C50.4747 59.1343 51.7248 59.3308 52.9008 59.1702C54.0747 59.0098 55.0068 58.5166 55.7006 57.9615C56.3801 57.4179 56.8407 56.8091 57.1275 56.3567C57.274 56.1257 57.384 55.9213 57.4616 55.7648C57.5005 55.6862 57.5319 55.6184 57.556 55.564L57.5871 55.4922L57.5988 55.4641L57.6037 55.452L57.6059 55.4465L57.608 55.4413C57.6645 55.3002 57.7078 55.1541 57.7373 55.0049L67.5472 5.54601C67.5786 5.38783 67.5944 5.22696 67.5944 5.0657C67.5944 3.61733 67.0487 2.24009 65.7655 1.40435C64.6687 0.690072 63.447 0.659326 62.6748 0.717934C61.8419 0.781155 61.0726 0.986777 60.5564 1.15108C60.2877 1.23659 60.0625 1.3191 59.9001 1.38204C59.8185 1.41367 59.7516 1.44081 59.7017 1.46151L59.6643 1.47726L4.64832 23.0592L4.64119 23.0618C4.60613 23.0745 4.56112 23.0913 4.50762 23.1122C4.40109 23.1536 4.25835 23.2121 4.09163 23.2876C3.76646 23.435 3.3103 23.6653 2.8422 23.9859C2.09437 24.498 0.374507 25.9006 0.664111 28.2156C0.895149 30.0625 2.1604 31.1967 2.93128 31.7422C3.35456 32.0417 3.75668 32.2559 4.04955 32.3953C4.18541 32.46 4.46749 32.5746 4.58989 32.6243L4.62077 32.6368L15.0509 36.1482ZM61.5897 6.02371L61.582 6.02705C61.5546 6.03896 61.527 6.05037 61.4992 6.06128L6.41643 27.6694C6.38767 27.6807 6.3587 27.6915 6.32953 27.7017L6.29887 27.7133C6.26363 27.727 6.2043 27.7511 6.12984 27.7848C6.08761 27.804 6.04355 27.8248 5.99863 27.8473C6.06035 27.882 6.11942 27.9122 6.17192 27.9372C6.22231 27.9612 6.26075 27.9776 6.28179 27.9862L16.6263 31.4688C16.8156 31.5325 16.9921 31.617 17.1541 31.7188L51.311 11.7236L51.3429 11.7047C51.3679 11.69 51.4005 11.6711 51.4397 11.649C51.5175 11.605 51.6243 11.5465 51.7513 11.4819C51.9884 11.3612 52.3676 11.1821 52.7949 11.05C53.0924 10.9581 53.9696 10.6991 54.9179 11.0033C55.5032 11.191 56.1091 11.5946 56.5033 12.2783C56.6991 12.6179 56.8034 12.9591 56.8539 13.2715C56.9882 13.7635 56.9669 14.2494 56.8618 14.6689C56.6355 15.5725 56.0007 16.2773 55.423 16.8164C54.9282 17.2786 48.5246 23.4533 42.2074 29.5487C39.0571 32.5883 35.9389 35.598 33.6083 37.8478L32.0775 39.3256L51.4059 54.1441C51.8492 54.3029 52.1113 54.2947 52.2325 54.2781C52.377 54.2584 52.4952 54.2028 52.616 54.1062C52.751 53.9981 52.8691 53.8522 52.9574 53.713L52.961 53.7073L62.4755 5.73784C62.3343 5.77178 62.1916 5.81219 62.0539 5.856C61.8981 5.90561 61.7696 5.95285 61.6843 5.98588C61.6422 6.00223 61.6118 6.01463 61.5953 6.02148L61.5897 6.02371ZM33.738 46.8203L29.8819 43.8639L28.9475 49.8077L33.738 46.8203ZM26.3444 37.9974L30.1791 34.2954C32.5099 32.0455 35.6283 29.0355 38.779 25.9955L41.9801 22.9071L20.5183 35.4707L20.6335 35.7422C21.2184 37.1218 22.0073 38.9893 22.8223 40.9392C23.4316 42.3972 24.0689 43.9325 24.6493 45.3538L25.5809 39.4275C25.6707 38.856 25.9499 38.3614 26.3444 37.9974Z" fill="white"/>
</svg>
