<svg width="67" height="66" viewBox="0 0 67 66" fill="none" xmlns="http://www.w3.org/2000/svg">
<path d="M23.2495 17.6004C23.8518 17.6166 24.5194 17.6491 25.1547 19.0592C25.5759 19.9979 26.2855 21.7261 26.8636 23.1338C27.3134 24.2292 27.6836 25.1306 27.7762 25.3152C27.9878 25.7365 28.1181 26.2226 27.8413 26.7898C27.8087 26.8567 27.7779 26.9207 27.7482 26.9823C27.5261 27.4431 27.3681 27.771 26.9947 28.1999C26.8412 28.3761 26.6812 28.5694 26.5219 28.7619C26.2416 29.1006 25.9632 29.4371 25.7245 29.6748C25.3012 30.0959 24.8614 30.55 25.3498 31.3927C25.8386 32.2353 27.5483 35.0068 30.0722 37.2434C32.7856 39.6591 35.1452 40.6772 36.3379 41.1918C36.5694 41.2917 36.757 41.3726 36.8947 41.4411C37.7416 41.8625 38.2462 41.7976 38.7347 41.2305C39.2234 40.663 40.8515 38.7668 41.4216 37.9241C41.9752 37.0815 42.545 37.2112 43.3268 37.5028C44.1083 37.7944 48.2768 39.8365 49.1234 40.2579C49.2908 40.3412 49.4473 40.4162 49.5924 40.4858C50.1815 40.7683 50.582 40.9603 50.7518 41.2466C50.9634 41.6031 50.9634 43.2887 50.2633 45.2659C49.547 47.2432 46.0948 49.1394 44.5316 49.2853C44.3836 49.2992 44.2363 49.317 44.0847 49.3354C42.6522 49.5087 40.8336 49.7286 34.3545 47.1783C26.371 44.0389 21.101 36.2495 20.0355 34.6747C19.9514 34.5504 19.8934 34.4648 19.8625 34.4233L19.8444 34.3991C19.3597 33.7505 16.3941 29.7823 16.3941 25.6881C16.3941 21.7709 18.3237 19.7315 19.2039 18.8013C19.2596 18.7423 19.3112 18.6878 19.3578 18.6376C20.1393 17.795 21.0513 17.5843 21.6211 17.5843C22.1912 17.5843 22.7611 17.5843 23.2495 17.6004Z" fill="white"/>
<path fill-rule="evenodd" clip-rule="evenodd" d="M1.18952 64.2156C0.920203 65.1932 1.81056 66.0955 2.79164 65.8392L17.9575 61.878C22.7447 64.4711 28.1345 65.8486 33.6222 65.8486H33.6384C51.6964 65.8486 66.4166 51.2137 66.4166 33.224C66.4166 24.5047 63.0131 16.3038 56.8256 10.145C50.6381 3.98648 42.4149 0.583008 33.6381 0.583008C15.5803 0.583008 0.86011 15.2179 0.86011 33.2079C0.858057 38.9309 2.36866 44.5538 5.24028 49.512L1.18952 64.2156ZM10.0004 50.8234C10.3521 49.5471 10.1764 48.183 9.51292 47.0374C7.07658 42.8308 5.79587 38.0602 5.79761 33.2079C5.79761 17.9682 18.2838 5.52051 33.6381 5.52051C41.1098 5.52051 48.0806 8.40725 53.3425 13.6445C58.5983 18.876 61.4791 25.8173 61.4791 33.224C61.4791 48.4633 48.993 60.9111 33.6384 60.9111H33.6222C28.9594 60.9111 24.3775 59.7402 20.3091 57.5365C19.208 56.94 17.9213 56.7843 16.7097 57.1008L7.61675 59.4758L10.0004 50.8234Z" fill="white"/>
</svg>
