<svg width="63" height="51" viewBox="0 0 63 51" fill="none" xmlns="http://www.w3.org/2000/svg">
<path fill-rule="evenodd" clip-rule="evenodd" d="M1.22879 13.4959C0.306654 22.0637 0.347759 31.9453 1.63093 40.4783C2.34093 45.1999 6.19439 48.8195 10.9511 49.233L15.9223 49.6652C26.2879 50.5662 36.7121 50.5662 47.0777 49.6652L52.0489 49.233C56.8056 48.8195 60.6591 45.1999 61.3691 40.4783C62.6522 31.9452 62.6934 22.0643 61.7713 13.4964C61.652 12.5031 61.518 11.5111 61.3691 10.5208C60.6591 5.79929 56.8056 2.17962 52.0489 1.76614L47.0777 1.334C36.7121 0.432937 26.2879 0.432938 15.9223 1.334L10.9511 1.76614C6.19439 2.17963 2.34093 5.79929 1.63093 10.5208C1.48204 11.5109 1.34799 12.5027 1.22879 13.4959ZM16.3498 6.25295C26.4309 5.37662 36.569 5.37662 46.6501 6.25295L51.6213 6.68508C54.1043 6.90093 56.1158 8.7904 56.4865 11.2551C56.5249 11.511 56.5624 11.7671 56.5988 12.0233L38.2938 22.1927C34.0687 24.54 28.9311 24.54 24.7059 22.1927L6.40118 12.0234C6.43759 11.7672 6.47504 11.511 6.51353 11.2551C6.88416 8.7904 8.89567 6.90093 11.3787 6.68509L16.3498 6.25295ZM57.203 17.3359C57.8415 24.8006 57.6026 32.3215 56.4865 39.7441C56.1158 42.2088 54.1043 44.0982 51.6213 44.3141L46.6501 44.7462C36.5691 45.6225 26.4309 45.6225 16.3499 44.7462L11.3787 44.3141C8.89567 44.0982 6.88416 42.2088 6.51353 39.7441C5.39736 32.3216 5.15852 24.8007 5.79699 17.336L22.3081 26.5088C28.0245 29.6846 34.9753 29.6846 40.6917 26.5088L57.203 17.3359Z" fill="white"/>
</svg>
