<svg width="34" height="20" viewBox="0 0 34 20" fill="none" xmlns="http://www.w3.org/2000/svg">
<path d="M19.2948 16.5247C19.2948 15.2571 18.2673 14.2296 16.9998 14.2296C15.7322 14.2296 14.7047 15.2571 14.7047 16.5247L19.2948 16.5247ZM15.3769 18.8033C16.2732 19.6996 17.7263 19.6996 18.6226 18.8033L33.2284 4.19747C34.1247 3.30118 34.1247 1.84802 33.2284 0.951729C32.3322 0.055444 30.879 0.0554441 29.9827 0.951729L16.9998 13.9347L4.01681 0.95173C3.12052 0.0554453 1.66736 0.0554454 0.771074 0.95173C-0.12521 1.84802 -0.12521 3.30118 0.771074 4.19747L15.3769 18.8033ZM14.7047 16.5247L14.7047 17.1804L19.2948 17.1804L19.2948 16.5247L14.7047 16.5247Z" fill="white"/>
</svg>
