<svg width="58" height="60" viewBox="0 0 58 60" fill="none" xmlns="http://www.w3.org/2000/svg">
<path fill-rule="evenodd" clip-rule="evenodd" d="M56.6956 23.7762C56.4288 24.0694 55.8979 24.5141 55.516 24.7645C54.4324 25.4745 39.945 34.2897 35.7971 36.763C33.4681 38.1517 33.0477 38.5371 32.9395 39.3825C32.908 39.6294 32.8775 41.2937 32.8719 43.081C32.8598 46.88 32.7674 50.0712 32.6231 51.6661C32.3556 54.6237 31.0557 57.9711 29.8266 58.8673C29.1866 59.3339 28.7365 59.4764 28.0901 59.4169C27.041 59.3204 26.2721 58.6428 25.5317 57.1628C24.2791 54.6588 24.0126 51.6571 24.3472 43.8189C24.4268 41.9551 24.4585 40.1886 24.4178 39.8935C24.3761 39.5911 24.1646 39.0902 23.9332 38.7456L23.5226 38.1342L12.829 31.8646C6.41654 28.1051 1.86643 25.3846 1.46376 25.0693C0.0789841 23.985 -0.11118 23.1498 0.400792 20.4002C0.760318 18.4696 1.3336 17.8767 2.68618 18.037C3.43251 18.1255 11.5665 20.505 17.2776 22.3057C18.8509 22.8017 20.6243 23.1618 21.8366 23.2314C22.8696 23.2906 24.3204 23.1883 24.4038 23.0502C24.4478 22.9775 24.7611 18.7962 25.2385 11.913C25.3696 10.0238 25.4404 8.45696 25.3958 8.43134C25.3514 8.40568 24.4552 8.0109 23.4045 7.55396C19.9476 6.05084 19.4857 5.72149 19.197 4.55505C19.0608 4.00425 19.2303 1.66464 19.4319 1.31515C19.6687 0.904189 20.3006 0.706612 21.4173 0.694375C22.0339 0.687615 24.5206 0.637504 26.9432 0.58299C32.8012 0.451268 37.2963 0.426946 37.7991 0.524112C38.4272 0.645416 39.2025 1.13872 39.4075 1.5473C39.6523 2.03523 39.7346 3.10071 39.5755 3.72311C39.3823 4.479 38.7408 5.3786 38.0441 5.87052C37.7209 6.09874 36.4623 6.7394 35.2472 7.29422L33.038 8.30294L33.0751 9.49269C33.1367 11.4694 33.4667 21.2357 33.5076 22.2945L33.5458 23.2828L34.1823 23.1848C34.5323 23.1309 35.1306 23.0419 35.5118 22.987C38.5521 22.5489 39.4803 22.2769 49.8984 18.7715C55.4798 16.8934 56.0242 16.7656 56.724 17.1697C57.3604 17.5371 57.9593 19.1941 57.9695 20.6156C57.9745 21.3013 57.6991 22.39 57.3934 22.8931C57.2764 23.0855 56.9624 23.4829 56.6956 23.7762Z" fill="#C4C4C4"/>
</svg>
