<svg width="60" height="59" viewBox="0 0 60 59" fill="none" xmlns="http://www.w3.org/2000/svg">
<path fill-rule="evenodd" clip-rule="evenodd" d="M23.9002 2.02068C24.1934 2.28749 24.6382 2.81836 24.8885 3.20036C25.5985 4.28392 34.4137 18.7713 36.887 22.9192C38.2757 25.2482 38.6611 25.6686 39.5065 25.7768C39.7535 25.8083 41.4177 25.8388 43.205 25.8444C47.004 25.8565 50.1952 25.9489 51.7902 26.0932C54.7477 26.3607 58.0951 27.6606 58.9913 28.8897C59.4579 29.5297 59.6004 29.9798 59.5409 30.6262C59.4444 31.6753 58.7669 32.4442 57.2868 33.1846C54.7828 34.4372 51.7812 34.7037 43.943 34.3692C42.0791 34.2895 40.3126 34.2578 40.0175 34.2985C39.7151 34.3402 39.2142 34.5518 38.8696 34.7831L38.2582 35.1937L31.9886 45.8874C28.2291 52.2998 25.5086 56.8499 25.1933 57.2526C24.109 58.6373 23.2738 58.8275 20.5242 58.3155C18.5936 57.956 18.0008 57.3827 18.1611 56.0301C18.2495 55.2838 20.629 47.1498 22.4297 41.4387C22.9258 39.8654 23.2859 38.092 23.3554 36.8797C23.4147 35.8467 23.3123 34.396 23.1743 34.3125C23.1015 34.2685 18.9202 33.9552 12.037 33.4778C10.1478 33.3467 8.58098 33.2759 8.55536 33.3205C8.52971 33.3649 8.13492 34.2611 7.67799 35.3118C6.17487 38.7687 5.84551 39.2306 4.67907 39.5193C4.12828 39.6555 1.78867 39.486 1.43917 39.2845C1.02821 39.0476 0.830636 38.4157 0.818399 37.299C0.811639 36.6824 0.761528 34.1957 0.707013 31.7731C0.575291 25.9151 0.550969 21.42 0.648136 20.9173C0.769439 20.2891 1.26275 19.5138 1.67133 19.3088C2.15925 19.064 3.22474 18.9817 3.84714 19.1408C4.60303 19.334 5.50262 19.9755 5.99454 20.6722C6.22277 20.9954 6.86343 22.254 7.41824 23.4691L8.42697 25.6783L9.61671 25.6412C11.5934 25.5796 21.3597 25.2496 22.4185 25.2087L23.4068 25.1705L23.3088 24.534C23.2549 24.184 23.1659 23.5857 23.111 23.2045C22.6729 20.1642 22.4009 19.236 18.8955 8.81791C17.0174 3.23652 16.8896 2.69215 17.2937 1.99226C17.6611 1.35588 19.3182 0.756959 20.7396 0.746777C21.4254 0.741786 22.514 1.01718 23.0171 1.32286C23.2095 1.43987 23.607 1.75386 23.9002 2.02068Z" fill="#C4C4C4"/>
</svg>
